<svg width="26" height="26" viewBox="0 0 26 26" fill="none" xmlns="http://www.w3.org/2000/svg">
<path d="M22.0101 4.50188C20.3529 3.74151 18.5759 3.1813 16.7179 2.86045C16.6841 2.85425 16.6503 2.86973 16.6328 2.90068C16.4043 3.30716 16.1511 3.83745 15.9738 4.25426C13.9754 3.95508 11.9873 3.95508 10.0298 4.25426C9.85253 3.82819 9.59019 3.30716 9.36062 2.90068C9.34319 2.87076 9.30939 2.85529 9.27555 2.86045C7.41857 3.18028 5.64152 3.74048 3.98335 4.50188C3.96899 4.50807 3.95669 4.5184 3.94852 4.5318C0.577841 9.56752 -0.345529 14.4795 0.107445 19.3305C0.109495 19.3543 0.122817 19.377 0.141265 19.3914C2.36514 21.0246 4.51935 22.016 6.63355 22.6732C6.66739 22.6835 6.70324 22.6712 6.72477 22.6433C7.22489 21.9603 7.6707 21.2402 8.05293 20.4829C8.07549 20.4386 8.05396 20.3859 8.00785 20.3684C7.30073 20.1002 6.6274 19.7731 5.97971 19.4017C5.92848 19.3718 5.92437 19.2985 5.9715 19.2634C6.1078 19.1613 6.24414 19.055 6.37428 18.9477C6.39783 18.9281 6.43064 18.924 6.45833 18.9364C10.7134 20.8791 15.32 20.8791 19.5249 18.9364C19.5525 18.923 19.5854 18.9271 19.6099 18.9467C19.7401 19.054 19.8764 19.1613 20.0137 19.2634C20.0609 19.2985 20.0578 19.3718 20.0066 19.4017C19.3589 19.7803 18.6855 20.1002 17.9774 20.3674C17.9313 20.3849 17.9108 20.4386 17.9333 20.4829C18.3238 21.2391 18.7696 21.9593 19.2605 22.6423C19.281 22.6712 19.3179 22.6835 19.3517 22.6732C21.4761 22.016 23.6303 21.0246 25.8542 19.3914C25.8737 19.377 25.886 19.3553 25.8881 19.3315C26.4302 13.7232 24.98 8.85153 22.0439 4.53282C22.0367 4.5184 22.0245 4.50807 22.0101 4.50188ZM8.68836 16.3767C7.40729 16.3767 6.35173 15.2006 6.35173 13.7562C6.35173 12.3118 7.38682 11.1357 8.68836 11.1357C10.0001 11.1357 11.0455 12.3222 11.025 13.7562C11.025 15.2006 9.98986 16.3767 8.68836 16.3767ZM17.3276 16.3767C16.0466 16.3767 14.991 15.2006 14.991 13.7562C14.991 12.3118 16.0261 11.1357 17.3276 11.1357C18.6394 11.1357 19.6847 12.3222 19.6643 13.7562C19.6643 15.2006 18.6394 16.3767 17.3276 16.3767Z" fill="white"/>
</svg>
