<svg width="26" height="26" viewBox="0 0 26 26" fill="none" xmlns="http://www.w3.org/2000/svg">
<path d="M25.741 7.80004C25.741 7.80004 25.4871 6.00746 24.7051 5.22036C23.7148 4.18442 22.6078 4.17934 22.1 4.1184C18.4641 3.85434 13.0051 3.85434 13.0051 3.85434H12.9949C12.9949 3.85434 7.53594 3.85434 3.9 4.1184C3.39219 4.17934 2.28516 4.18442 1.29492 5.22036C0.512891 6.00746 0.264062 7.80004 0.264062 7.80004C0.264062 7.80004 0 9.90747 0 12.0098V13.9801C0 16.0825 0.258984 18.1899 0.258984 18.1899C0.258984 18.1899 0.512891 19.9825 1.28984 20.7696C2.28008 21.8055 3.58008 21.77 4.15898 21.8817C6.24102 22.0797 13 22.1407 13 22.1407C13 22.1407 18.4641 22.1305 22.1 21.8715C22.6078 21.8106 23.7148 21.8055 24.7051 20.7696C25.4871 19.9825 25.741 18.1899 25.741 18.1899C25.741 18.1899 26 16.0875 26 13.9801V12.0098C26 9.90747 25.741 7.80004 25.741 7.80004ZM10.3137 16.3719V9.0645L17.3367 12.7309L10.3137 16.3719Z" fill="white"/>
</svg>
